# xmcd CD database file
#
# Track frame offsets:
#	150
#	17467
#	34656
#	47833
#	62088
#	80095
#	91327
#	106304
#	119036
#	134345
#
# Disc length: 1964 seconds
#
# Revision: 0
# Processed by: cddbd v1.4PL0 Copyright (c) Steve Scherf et al.
# Submitted via: CDex 1.51
#
DISCID=8307aa0a
DTITLE=Rattlesnake Annie - Troubadour
DYEAR=1900
DGENRE=Country
TTITLE0=Adios Last Cowboy
TTITLE1=Kunitachi
TTITLE2=Olé Uli
TTITLE3=Mexican Wedding Song
TTITLE4=Okinawa Moon
TTITLE5=Caroline And Rachel
TTITLE6=Revolution
TTITLE7=Comanche Tears
TTITLE8=The Great Hanshin Earthquake
TTITLE9=Yuki Ga Fulu HI Ni
EXTD=
EXTT0=
EXTT1=
EXTT2=
EXTT3=
EXTT4=
EXTT5=
EXTT6=
EXTT7=
EXTT8=
EXTT9=
PLAYORDER=
